<?xml version="1.0" ?><!DOCTYPE svg  PUBLIC '-//W3C//DTD SVG 1.1//EN'  'http://www.w3.org/Graphics/SVG/1.1/DTD/svg11.dtd'><svg enable-background="new 0 0 91 91" height="91px" id="Layer_1" version="1.1" viewBox="0 0 91 91" width="91px" xml:space="preserve" xmlns="http://www.w3.org/2000/svg" xmlns:xlink="http://www.w3.org/1999/xlink"><g><g><g><path d="M84.987,13.105c-0.966-1.647-2.176-3.104-3.604-4.278c-2.929-2.404-6.842-3.724-11.018-3.724     c-7.318,0-13.953,3.779-16.904,9.629c-0.177,0.354-0.572,0.542-0.957,0.446c-0.384-0.091-0.655-0.434-0.655-0.828     c0-6.106-6.229-10.667-11.799-10.667c-0.933,0-1.847,0.121-2.712,0.36c-6.519,1.8-10.875,9.333-9.511,16.454     c0.079,0.416-0.16,0.83-0.56,0.966c-0.404,0.138-0.844-0.042-1.036-0.418c-1.914-3.758-6.216-6.279-10.704-6.279     c-1.454,0-2.835,0.265-4.11,0.79C6.223,17.69,3.105,26.007,3.557,32.138l0.012,0.168c0.873,12.094,6.565,23.735,16.46,33.674     C36.371,46.512,63.666,22.053,84.987,13.105z" fill="#ACD263"/><path d="M77.775,58.069c4.569,0,8.954-3.658,9.776-8.158c0.821-4.494-1.986-9.466-6.263-11.082     c-0.286-0.109-0.492-0.364-0.54-0.669c-0.048-0.303,0.075-0.608,0.316-0.798c4.019-3.147,6.456-8.453,6.521-14.192     c0.036-3.047-1.401-7.492-2.6-10.065C57.781,23.969,37.781,47.512,21.531,66.829l2.491,1.381     C42.585,78.506,58.617,87.401,65.64,88.011c14.485,1.253,20.827-11.114,20.88-15.879c0.062-5.466-3.807-10.796-8.996-12.399     c-0.401-0.125-0.652-0.522-0.59-0.938C76.998,58.377,77.355,58.069,77.775,58.069z" fill="#85986F"/></g><g><path d="M12.257,79.512c-0.441,0-0.889-0.127-1.282-0.394c-1.054-0.709-1.331-2.139-0.62-3.191     C24.867,54.409,50.77,30.786,70.607,20.982c1.138-0.561,2.518-0.096,3.08,1.043c0.563,1.138,0.095,2.516-1.044,3.078     c-18.898,9.34-44.583,32.794-58.478,53.394C13.723,79.157,12.996,79.512,12.257,79.512z" fill="#434B56"/><path d="M67.638,90.913c-0.735,0-1.491-0.031-2.271-0.099c-7.224-0.628-11.208-2.849-26.029-11.112     c-2.119-1.183-4.465-2.49-7.08-3.938c-1.11-0.615-1.513-2.016-0.896-3.127c0.613-1.11,2.013-1.511,3.124-0.896     c2.619,1.45,4.969,2.759,7.091,3.942c14.144,7.888,17.947,10.009,24.189,10.548c6.737,0.593,11.265-2.114,13.878-4.481     c3.525-3.197,5.4-7.437,5.43-9.97c0.055-4.851-3.375-9.578-7.974-11c-1.088-0.334-1.766-1.415-1.596-2.54     c0.171-1.122,1.137-1.953,2.272-1.953c3.903,0,7.649-3.129,8.353-6.971c0.701-3.841-1.698-8.088-5.351-9.47     c-0.777-0.293-1.334-0.982-1.46-1.803c-0.125-0.82,0.202-1.644,0.855-2.156c3.677-2.878,5.908-7.765,5.967-13.068     c0.06-5.306-2.061-10.243-5.674-13.207c-3.614-2.966-8.875-4.078-14.064-2.979c-5.19,1.099-9.544,4.245-11.646,8.418     c-0.481,0.951-1.551,1.449-2.585,1.202c-1.036-0.245-1.769-1.172-1.769-2.237c0-2.568-1.376-5.09-3.775-6.916     c-2.649-2.015-6.06-2.779-8.903-1.996c-5.721,1.58-9.681,8.489-8.476,14.787c0.216,1.125-0.429,2.235-1.513,2.608     c-1.083,0.37-2.272-0.111-2.793-1.131c-2.28-4.468-8.343-6.717-12.976-4.807C7.479,18.406,4.588,26.074,5,31.696l0.012,0.172     c0.851,11.786,6.437,23.152,16.153,32.87c0.898,0.897,0.898,2.353,0,3.252c-0.897,0.898-2.352,0.898-3.251,0     C7.405,57.479,1.357,45.104,0.427,32.2l-0.012-0.167c-0.539-7.327,3.057-16.951,9.802-19.725     c4.767-1.963,10.403-1.003,14.518,1.99C25.92,7.941,30.461,2.339,36.5,0.674c4.259-1.176,9.087-0.142,12.912,2.768     c1.889,1.438,3.351,3.203,4.305,5.144c2.962-3.188,7.035-5.456,11.733-6.45c6.643-1.406,13.178,0.023,17.931,3.921     c4.754,3.898,7.435,10.026,7.356,16.816c-0.063,5.551-1.959,10.617-5.296,14.351c3.902,2.928,6.101,8.052,5.209,12.92     c-0.717,3.934-3.379,7.312-6.844,9.181c3.629,3.04,5.918,7.671,5.864,12.507c-0.039,3.538-2.202,9.03-6.941,13.326     C79.745,87.862,74.792,90.913,67.638,90.913z" fill="#434B56"/><path d="M59.591,62.483c-0.419,0-0.843-0.114-1.223-0.352c-4.059-2.556-17.493-6.782-25.757-6.975     c-1.269-0.03-2.272-1.083-2.245-2.353c0.03-1.271,1.087-2.29,2.352-2.245c8.733,0.202,22.988,4.463,28.099,7.68     c1.074,0.675,1.397,2.095,0.721,3.17C61.102,62.104,60.354,62.483,59.591,62.483z" fill="#434B56"/><path d="M43.219,45.262c-0.264,0-0.535-0.045-0.796-0.142c-1.191-0.442-1.799-1.765-1.358-2.955     c2.287-6.179,2.342-10.107,0.196-13.56C40.592,27.527,40.922,26.11,42,25.44c1.079-0.673,2.496-0.34,3.167,0.739     c2.949,4.747,3.014,10.005,0.21,17.582C45.032,44.688,44.153,45.262,43.219,45.262z" fill="#434B56"/><path d="M64.373,39.485c-0.458,0-0.921-0.137-1.322-0.42c-2.561-1.801-5.078-2.003-9.43-1.76     c-1.27,0.051-2.354-0.901-2.424-2.167c-0.071-1.268,0.898-2.354,2.168-2.423c4.387-0.246,8.342-0.218,12.332,2.591     c1.039,0.733,1.286,2.166,0.557,3.204C65.806,39.144,65.095,39.485,64.373,39.485z" fill="#434B56"/></g></g></g></svg>