<?xml version="1.0" ?><!DOCTYPE svg  PUBLIC '-//W3C//DTD SVG 1.1//EN'  'http://www.w3.org/Graphics/SVG/1.1/DTD/svg11.dtd'><svg enable-background="new 0 0 91 91" height="91px" id="Layer_1" version="1.1" viewBox="0 0 91 91" width="91px" xml:space="preserve" xmlns="http://www.w3.org/2000/svg" xmlns:xlink="http://www.w3.org/1999/xlink"><g><g><g><path d="M23.398,41.842c-0.002-0.021-0.004-0.043-0.006-0.064c-0.07-0.623-0.117-1.244-0.117-1.859     c0-0.892,0.055-1.744,0.154-2.562c0.326-3.125,1.232-5.871,2.76-8.17c-3.006,0.322-5.092,1.877-8.557,4.461     c-4.189,3.119-6.438,6.189-6.963,9.453c-0.002,0.008-0.002,0.016-0.002,0.023c0,0.002,0,0.004,0,0.006     c-0.549,3.453,0.783,7.279,4.074,11.693c6.141,8.246,19.576,11.213,25.484,11.418C33.257,61.604,24.492,51.301,23.398,41.842z" fill="#FAE58F"/><path d="M13.392,55.826c-2.803-3.766-4.273-7.184-4.484-10.377c-2.32,3.092-4.104,7.701-4.986,13.092     c-0.99,6.037-0.418,10.396,0.373,11.227c1.275,1.336,5.777-0.076,10.547-1.574c3.695-1.16,7.809-2.445,12.012-3.102     C21.777,63.195,16.675,60.234,13.392,55.826z" fill="#DABE92"/><path d="M67.607,41.928c0.006-0.043,0.01-0.088,0.016-0.131c0.088-0.631,0.139-1.26,0.139-1.879     c0-12.589-11.531-17.056-21.404-17.056c-9.856,0-21.356,4.453-21.401,16.99c0,0.023,0,0.045,0,0.066     c0,10.109,11.852,22.295,18.205,25.994c0.086,0.051,0.148,0.123,0.211,0.199c1.189,0.617,2.217,0.959,2.985,0.959     c0.49,0,1.162-0.209,1.959-0.588c0.066-0.076,0.143-0.141,0.234-0.191C54.652,62.988,66.158,51.816,67.607,41.928z" fill="#FAE58F"/><path d="M76.551,54.822c3.299-4.428,4.631-8.262,4.074-11.723c-0.529-3.264-2.777-6.333-6.873-9.384l-1.123-0.846     c-2.338-1.766-3.854-2.91-5.932-3.424c1.436,2.26,2.289,4.934,2.598,7.961c0.096,0.801,0.146,1.639,0.146,2.511     c0,0.584-0.045,1.172-0.111,1.764c-0.006,0.037-0.01,0.074-0.016,0.113c-1.107,9.297-10.049,19.381-16.83,24.15     C59.244,65.123,71.17,62.053,76.551,54.822z" fill="#FAE58F"/><path d="M87.426,59.324c-0.875-5.17-2.732-9.674-5.182-12.695c-0.459,2.855-1.883,5.891-4.346,9.197     c-3.332,4.475-8.723,7.355-13.996,9.18c4.387,0.629,8.689,1.979,12.539,3.188c4.768,1.498,9.264,2.912,10.545,1.574     C87.889,68.822,88.314,64.561,87.426,59.324z" fill="#DABE92"/></g><g><path d="M46.182,70.236c-7.114,0-24.512-16.152-24.512-30.26c0-14.884,13.203-20.166,24.512-20.166     c11.307,0,24.512,5.281,24.512,20.166C70.693,53.422,52.922,70.236,46.182,70.236z M46.182,24.348     c-9.659,0-19.977,4.105-19.977,15.628c0,11.439,15.365,25.725,19.977,25.725c3.52,0,19.975-14.139,19.975-25.725     C66.156,28.454,55.838,24.348,46.182,24.348z" fill="#434B56"/><path d="M85.051,73.471c-2.541,0-5.799-1.023-9.717-2.254c-4.236-1.332-9.035-2.84-13.719-3.277     c-1.246-0.117-2.162-1.223-2.047-2.469c0.117-1.246,1.213-2.162,2.471-2.047c5.16,0.482,10.205,2.066,14.654,3.465     c3.232,1.016,8.121,2.549,9.107,1.928c1.188-1.754,0.668-16.131-5.955-22.459c-0.906-0.865-0.939-2.301-0.074-3.207     c0.865-0.904,2.301-0.938,3.207-0.072c4.838,4.621,6.672,11.873,7.336,15.783c0.283,1.674,1.555,10.166-1.258,13.111     C88.031,73.045,86.689,73.471,85.051,73.471z" fill="#434B56"/><path d="M5.876,73.471c-1.641,0-2.98-0.426-4.006-1.5c-2.816-2.943-1.488-12.074-1.193-13.875     c0.689-4.205,2.566-11.953,7.406-16.574c0.906-0.865,2.344-0.83,3.207,0.074c0.865,0.906,0.832,2.342-0.074,3.207     C4.875,50.857,3.72,66.289,5.167,68.842c1.082,0.555,5.879-0.951,9.068-1.953c4.449-1.398,9.494-2.982,14.654-3.465     c1.258-0.115,2.354,0.799,2.469,2.047c0.117,1.246-0.799,2.352-2.047,2.469c-4.682,0.438-9.482,1.945-13.717,3.277     C11.675,72.447,8.416,73.471,5.876,73.471z" fill="#434B56"/><path d="M48.957,69.357L48.957,69.357l-0.219-0.002c-1.031-0.016-1.922-0.727-2.168-1.729     s0.217-2.043,1.123-2.533c5.521-2.99,18.463-15.143,18.463-25.117c0-4.167-1.088-7.578-3.232-10.136     c-0.584-0.695-0.695-1.672-0.287-2.48s1.258-1.301,2.166-1.24c4.135,0.26,6.395,1.965,9.521,4.326l1.107,0.832     c4.777,3.561,7.42,7.283,8.082,11.384c0.701,4.334-0.82,8.938-4.646,14.074C71.143,67.111,53.029,69.357,48.957,69.357z      M69.551,32.563c0.76,2.229,1.143,4.705,1.143,7.414c0,8.777-7.33,17.975-13.754,23.797c6.361-1.402,14.279-4.359,18.289-9.746     c3.057-4.104,4.303-7.584,3.809-10.643c-0.465-2.879-2.531-5.648-6.316-8.468l-1.131-0.85     C70.826,33.489,70.164,32.989,69.551,32.563z" fill="#434B56"/><path d="M40.705,69.424L40.705,69.424c-6.26,0-21.492-3.102-28.635-12.688c-3.826-5.139-5.346-9.742-4.646-14.074     c0.662-4.101,3.307-7.826,8.086-11.384l0.088-0.064c4.164-3.105,7.096-5.322,12.217-5.129c0.867,0.031,1.641,0.555,1.992,1.35     c0.352,0.793,0.219,1.719-0.342,2.381c-2.162,2.557-3.258,5.975-3.258,10.162c0,9.568,11.391,21.205,17.496,24.76     c0.605,0.352,1.016,0.965,1.107,1.66c0.084,0.643-0.109,1.287-0.525,1.775c-0.504,0.697-1.121,1.082-1.85,1.166     C41.912,69.396,41.335,69.424,40.705,69.424z M23.183,31.565c-1.416,0.705-2.885,1.801-4.875,3.285l-0.088,0.066     c-3.787,2.818-5.854,5.589-6.318,8.468c-0.494,3.059,0.752,6.539,3.807,10.643c4.609,6.186,13.617,9.248,19.992,10.357     c-6.535-5.787-14.031-15.328-14.031-24.408C21.669,36.856,22.177,34.043,23.183,31.565z" fill="#434B56"/><path d="M42.562,58.385c-0.605,0-1.209-0.24-1.654-0.717c-13.473-14.363-6.297-25.181-5.984-25.634     c0.709-1.031,2.123-1.293,3.154-0.584c1.025,0.707,1.289,2.109,0.594,3.139c-0.244,0.373-5.293,8.423,5.545,19.976     c0.855,0.914,0.811,2.35-0.104,3.207C43.675,58.182,43.119,58.385,42.562,58.385z" fill="#434B56"/></g></g></g></svg>