<?xml version="1.0" ?><!DOCTYPE svg  PUBLIC '-//W3C//DTD SVG 1.1//EN'  'http://www.w3.org/Graphics/SVG/1.1/DTD/svg11.dtd'><svg enable-background="new 0 0 91 91" height="91px" id="Layer_1" version="1.1" viewBox="0 0 91 91" width="91px" xml:space="preserve" xmlns="http://www.w3.org/2000/svg" xmlns:xlink="http://www.w3.org/1999/xlink"><g><g><g><path d="M52.431,70.026c1.077-0.996,1.986-2.12,2.683-3.406c4.761-8.814-1.281-21.081-1.539-21.599     c-0.208-0.413-0.71-0.578-1.119-0.372c-0.412,0.208-0.577,0.706-0.373,1.119c0.061,0.118,5.911,12.018,1.56,20.062     c-2.199,4.071-6.685,6.526-13.232,7.295c-0.423-0.002-10.399-0.15-14.282-10.324c-0.164-0.43-0.641-0.646-1.075-0.48     c-0.43,0.162-0.646,0.646-0.481,1.077c0.903,2.366,2.13,4.218,3.493,5.703c-3.973,0.963-8.137,0.312-11.603-1.884     c-3.516-2.226-5.815-5.806-6.303-9.822c-1.335-10.96,8.001-18.139,8.17-18.275l12.702-12.12c0.079-0.072,1.992-1.876,4.121-7.74     c0.042-0.118,0.06-0.242,0.048-0.366c-0.004-0.025-0.227-2.559,1.179-4.104c0.746-0.82,1.854-1.235,3.297-1.235     c1.435,0,2.524,0.409,3.239,1.221c1.361,1.537,1.064,4.07,1.061,4.096c-0.012,0.087-0.008,0.178,0.01,0.268     c0.816,4.098,4.283,7.798,4.462,7.98l12.789,12.192c0.097,0.072,9.562,7.267,8.095,18.2     C68.076,66.819,59.056,69.402,52.431,70.026z" fill="#F3DBD2"/></g><g><g><path d="M78.906,64.972l-17.371,12.08c0,0-7.408,4.177-0.408,8.993c5.49,3.78,11.481,2.574,15.597-0.89      C82.193,80.548,82.619,72.456,78.906,64.972z" fill="#F3DBD2"/><path d="M68.291,90.623L68.291,90.623c-2.975,0-5.814-0.917-8.438-2.723c-2.747-1.891-4.085-4.051-3.979-6.426      c0.16-3.596,3.687-5.872,4.452-6.325l17.296-12.027c0.538-0.372,1.211-0.492,1.845-0.331c0.635,0.163,1.165,0.593,1.458,1.18      c4.374,8.822,3.297,17.814-2.751,22.906C75.305,89.293,71.795,90.623,68.291,90.623z M77.927,68.394L62.82,78.898      c-0.059,0.041-0.119,0.077-0.179,0.112c-0.688,0.397-2.229,1.628-2.271,2.669c-0.027,0.688,0.715,1.604,2.035,2.513      c1.86,1.278,3.839,1.928,5.886,1.93c2.444,0,4.924-0.955,6.982-2.688C79.16,80.16,80.112,74.435,77.927,68.394z" fill="#434B56"/></g><path d="M50.402,73.045c-1.207,0-2.205-0.956-2.248-2.171c-0.044-1.243,0.927-2.285,2.17-2.33     c6.147-0.217,16.651-1.992,17.923-11.446c1.362-10.141-7.443-16.806-7.532-16.872c-0.073-0.056-0.146-0.116-0.212-0.178     L47.79,27.922c-0.027-0.027-0.055-0.053-0.08-0.082c-0.158-0.167-3.897-4.156-4.793-8.651c-0.242-1.219,0.55-2.403,1.77-2.646     c1.223-0.242,2.403,0.55,2.646,1.768c0.527,2.646,2.748,5.472,3.609,6.395l12.579,11.999c1.264,0.979,10.821,8.831,9.188,20.992     c-1.25,9.297-9.353,14.891-22.227,15.347C50.455,73.045,50.428,73.045,50.402,73.045z" fill="#434B56"/><path d="M24.809,72.407c-3.39,0-6.738-0.952-9.672-2.809c-4.303-2.722-7.116-7.116-7.716-12.057     c-1.485-12.167,7.955-19.995,9.187-20.958l12.627-12.051c0.008-0.008,1.541-1.595,3.341-6.551     c0.424-1.169,1.715-1.77,2.884-1.347c1.167,0.424,1.771,1.716,1.347,2.884c-2.164,5.955-4.125,7.959-4.495,8.3L19.63,39.922     c-0.064,0.06-0.131,0.118-0.204,0.17c-0.081,0.064-8.772,6.791-7.538,16.906c0.444,3.647,2.452,6.77,5.656,8.797     c3.468,2.196,7.71,2.706,11.644,1.396c1.179-0.392,2.454,0.246,2.846,1.425c0.393,1.18-0.247,2.454-1.425,2.847     C28.709,72.095,26.751,72.407,24.809,72.407z" fill="#434B56"/><path d="M40.732,75.983c-0.51,0-12.52-0.14-17.162-12.307c-0.444-1.161,0.14-2.461,1.301-2.905     c1.157-0.441,2.461,0.14,2.905,1.301c3.342,8.757,11.791,9.365,12.847,9.406c6.077-0.734,10.147-2.938,12.098-6.55     c4.006-7.416-1.525-18.638-1.582-18.75c-0.557-1.112-0.107-2.463,1.003-3.02c1.116-0.56,2.464-0.108,3.021,1.004     c0.273,0.544,6.627,13.451,1.52,22.906c-2.706,5.008-7.985,8.003-15.69,8.898C40.905,75.978,40.82,75.983,40.732,75.983z" fill="#434B56"/><path d="M27.044,48.01c-0.199,0-0.401-0.025-0.601-0.082c-1.198-0.331-1.901-1.573-1.57-2.771     c1.062-3.84,5.448-9.539,5.945-10.176c0.764-0.98,2.178-1.155,3.157-0.392c0.981,0.764,1.157,2.177,0.394,3.158     c-1.198,1.539-4.458,6.083-5.158,8.609C28.936,47.356,28.031,48.01,27.044,48.01z" fill="#434B56"/><path d="M40.449,14.747c-1.242,0-2.25-1.008-2.25-2.25V2.53c0-1.245,1.008-2.25,2.25-2.25     c1.245,0,2.25,1.006,2.25,2.25v9.967C42.7,13.739,41.694,14.747,40.449,14.747z" fill="#434B56"/><path d="M46.211,14.743c-0.381,0-0.764-0.097-1.119-0.299c-1.078-0.618-1.45-1.995-0.832-3.072l2.231-3.888     c0.618-1.078,1.993-1.452,3.072-0.832c1.078,0.619,1.452,1.993,0.831,3.073l-2.23,3.888     C47.749,14.338,46.992,14.743,46.211,14.743z" fill="#434B56"/><path d="M34.691,14.743c-0.548,0-1.097-0.198-1.529-0.601l-4.195-3.888c-0.911-0.845-0.965-2.268-0.12-3.181     c0.848-0.913,2.27-0.965,3.181-0.12l4.194,3.889c0.911,0.845,0.965,2.27,0.12,3.181C35.898,14.501,35.296,14.743,34.691,14.743z" fill="#434B56"/></g></g></g></svg>