<?xml version="1.0" ?><!DOCTYPE svg  PUBLIC '-//W3C//DTD SVG 1.1//EN'  'http://www.w3.org/Graphics/SVG/1.1/DTD/svg11.dtd'><svg enable-background="new 0 0 91 91" height="91px" id="Layer_1" version="1.1" viewBox="0 0 91 91" width="91px" xml:space="preserve" xmlns="http://www.w3.org/2000/svg" xmlns:xlink="http://www.w3.org/1999/xlink"><g><g><g><path d="M66.545,21.022v32.097c0,4.437-3.594,8.029-8.031,8.029H33.027c-4.436,0-8.035-3.593-8.035-8.029V16.538     c0,0,2.187-14.21,20.779-14.21C45.771,2.328,44.072,24.528,66.545,21.022z" fill="#F17897"/><path d="M58.514,63.428H33.027c-5.688,0-10.314-4.623-10.314-10.309V16.538c0-0.116,0.009-0.232,0.026-0.345     c0.025-0.164,2.719-16.144,23.032-16.144c0.635,0,1.241,0.265,1.673,0.73c0.431,0.465,0.648,1.089,0.602,1.724     c-0.007,0.075-0.522,8.038,3.958,12.854c2.322,2.495,5.684,3.761,9.986,3.761h0.002c1.308,0,2.722-0.116,4.201-0.347     c0.656-0.1,1.33,0.086,1.836,0.52c0.505,0.434,0.797,1.066,0.797,1.732v32.097C68.826,58.805,64.199,63.428,58.514,63.428z      M27.272,16.746v36.374c0,3.171,2.582,5.75,5.755,5.75h25.487c3.173,0,5.752-2.579,5.752-5.75V23.586     c-0.779,0.061-1.539,0.092-2.273,0.092H61.99c-5.637-0.002-10.126-1.765-13.348-5.242c-4.072-4.396-4.981-10.39-5.148-13.747     C29.999,5.673,27.556,15.342,27.272,16.746z" fill="#434B56"/></g><g><path d="M49.909,61.34v24.147c0,1.786-1.453,3.233-3.241,3.233h-1.8c-1.788,0-3.235-1.447-3.235-3.233V61.34     H49.909z" fill="#E4E4E6"/><path d="M46.668,91h-1.8c-3.041,0-5.515-2.474-5.515-5.513V59.061h12.836v26.427     C52.188,88.526,49.712,91,46.668,91z M43.912,63.619v21.868c0,0.525,0.428,0.954,0.956,0.954h1.8     c0.529,0,0.959-0.429,0.959-0.954V63.619H43.912z" fill="#434B56"/></g><path d="M34.05,20.929c-0.119,0-0.239-0.008-0.36-0.027c-1.234-0.198-2.081-1.343-1.895-2.578    c0.031-0.208,0.819-5.11,5.69-8.108c1.073-0.66,2.477-0.324,3.136,0.748s0.325,2.476-0.747,3.135    c-3.018,1.857-3.553,4.8-3.574,4.924C36.109,20.134,35.143,20.929,34.05,20.929z" fill="#FFFFFF"/><path d="M34.049,27.632c-1.361,0-2.468-1.105-2.468-2.466c0-1.356,1.107-2.46,2.468-2.46    c1.358,0,2.463,1.104,2.463,2.46C36.512,26.526,35.407,27.632,34.049,27.632z" fill="#FFFFFF"/></g></g></svg>