<?xml version="1.0" ?><!DOCTYPE svg  PUBLIC '-//W3C//DTD SVG 1.1//EN'  'http://www.w3.org/Graphics/SVG/1.1/DTD/svg11.dtd'><svg enable-background="new 0 0 91 91" height="91px" id="Layer_1" version="1.1" viewBox="0 0 91 91" width="91px" xml:space="preserve" xmlns="http://www.w3.org/2000/svg" xmlns:xlink="http://www.w3.org/1999/xlink"><g><g><g><path d="M69.875,17.817c3.679-3.648,6.862-6.802,9.349-9.274c-3.678-2.625-8.156-4.267-12.516-4.45     C54.335,3.565,35.87,5.714,18.399,30.227c-5.834,8.179-18.154,29.003-8.55,47.774c1.27-1.319,2.635-2.725,4.085-4.211     c0.014-0.143,0.051-0.28,0.139-0.405c0.146-0.208,0.369-0.324,0.603-0.354C30.02,57.326,53.895,33.657,69.875,17.817z" fill="#ACD263"/><path d="M79.224,8.543c-2.511,2.497-5.59,5.547-9.349,9.274C54.021,33.534,31.609,58.19,16.278,73.873     l8.239,5.793c6.663,4.517,12.809,6.606,14.535,7.141c12.195,3.765,29.17-3.269,35.604-14.765c4.221-7.533,3.44-16.9-2.104-25.78     c-5.467,3.382-11.591,5.736-17.911,6.775c-0.457,0.074-0.917-0.242-0.996-0.716c-0.078-0.472,0.242-0.918,0.714-0.996     c9.149-1.501,17.906-5.814,24.66-12.14c3.589-3.357,7.969-8.705,8.444-15.107c0.314-4.265-1.282-8.603-4.499-12.216     C82.248,11.056,80.064,9.245,79.224,8.543z" fill="#85986F"/></g><path d="M46.024,90.666c-2.748,0-5.422-0.363-7.918-1.136c-4.894-1.512-10.651-4.337-15.401-7.558    c-1.071-0.724-1.349-2.18-0.625-3.25c0.726-1.073,2.182-1.354,3.253-0.625c6.503,4.408,12.479,6.44,14.155,6.959    c11.397,3.519,27.861-3.319,33.883-14.075c5.723-10.216,0.242-20.739-2.38-24.79c-0.701-1.085-0.391-2.535,0.694-3.239    c1.085-0.702,2.534-0.391,3.238,0.693c6.515,10.068,7.438,20.867,2.534,29.624C71.67,83.604,58.14,90.666,46.024,90.666z" fill="#434B56"/><g><path d="M9.591,81.391c-0.825,0-1.623-0.436-2.051-1.208C-3.889,59.57,9.5,36.838,15.786,28.024     C36.287-0.744,59.287,0.226,66.845,0.546c6.929,0.292,13.851,3.599,18.518,8.842c3.799,4.267,5.68,9.447,5.301,14.585     c-0.438,5.888-3.706,11.838-9.453,17.214c-7.211,6.755-16.563,11.359-26.331,12.962c-1.276,0.211-2.48-0.656-2.689-1.933     c-0.21-1.276,0.655-2.479,1.932-2.689c8.862-1.454,17.346-5.63,23.889-11.758c3.399-3.18,7.542-8.213,7.983-14.141     c0.365-4.953-2.043-8.784-4.13-11.127c-3.783-4.251-9.614-7.04-15.218-7.277C54.623,4.718,36.654,6.812,19.601,30.743     C13.828,38.835,1.5,59.631,11.636,77.912c0.627,1.131,0.22,2.557-0.912,3.184C10.364,81.296,9.975,81.391,9.591,81.391z" fill="#434B56"/><path d="M2.806,88.769c-0.555,0-1.111-0.195-1.559-0.593c-0.964-0.861-1.048-2.341-0.189-3.305     c12.117-13.592,48.79-50.92,60.686-62.815c0.913-0.916,2.396-0.916,3.311,0c0.914,0.915,0.914,2.397,0,3.311     c-11.868,11.869-48.445,49.097-60.5,62.619C4.092,88.504,3.449,88.769,2.806,88.769z" fill="#434B56"/><path d="M44.625,69.479c-6.689,0-12.089-1.676-18.249-5.512c-1.097-0.684-1.434-2.129-0.75-3.226     c0.684-1.098,2.129-1.433,3.226-0.751c6.542,4.073,11.863,5.324,19.63,4.618c1.297-0.109,2.428,0.831,2.545,2.119     c0.117,1.289-0.83,2.426-2.119,2.545C47.416,69.408,45.993,69.479,44.625,69.479z" fill="#434B56"/><path d="M36.289,51.034c-0.97,0-1.877-0.608-2.212-1.576c-1.873-5.429-1.621-14.239,0.541-18.853     c0.546-1.171,1.942-1.675,3.113-1.127c1.169,0.548,1.676,1.942,1.127,3.113c-1.642,3.503-1.817,11.101-0.355,15.337     c0.421,1.223-0.228,2.556-1.45,2.977C36.801,50.994,36.543,51.034,36.289,51.034z" fill="#434B56"/></g></g></g></svg>