<?xml version="1.0" ?><!DOCTYPE svg  PUBLIC '-//W3C//DTD SVG 1.1//EN'  'http://www.w3.org/Graphics/SVG/1.1/DTD/svg11.dtd'><svg enable-background="new 0 0 91 91" height="91px" id="Layer_1" version="1.1" viewBox="0 0 91 91" width="91px" xml:space="preserve" xmlns="http://www.w3.org/2000/svg" xmlns:xlink="http://www.w3.org/1999/xlink"><g><g><g><path d="M46.486,21.997c-0.012-0.132-0.002-0.267,0.054-0.395c0.688-1.604,1.949-3.033,3.519-4.271     c-0.267-0.095-0.487-0.312-0.545-0.613c-0.693-3.592-0.029-5.883,0.455-7.553c0.325-1.12,0.559-1.93,0.329-2.751     c-0.768-2.771-4.715-3.092-7.422-2.973c-0.36,2.344-0.714,4.896-1.071,7.448c-0.352,2.517-0.701,5.021-1.053,7.33     c0.084,0.059,0.169,0.115,0.253,0.175C42.776,19.627,44.568,20.877,46.486,21.997z" fill="#B08C7E"/><path d="M77.376,17.914c-3.111-3.604-8.015-4.968-14.578-4.075c-4.766,0.654-12.737,3.783-14.718,8.418     c-0.077,0.183-0.22,0.313-0.383,0.399c2.861,1.534,6.016,2.739,9.796,3.136c0.459,0.049,0.792,0.461,0.744,0.921     c-0.051,0.461-0.442,0.794-0.921,0.746c-7.354-0.777-12.396-4.293-17.27-7.694c-0.171-0.119-0.343-0.237-0.516-0.358     c-0.123-0.048-0.232-0.121-0.315-0.218c-4.48-3.111-8.839-5.926-14.853-6.259c-5.435-0.3-10.403,1.988-12.348,5.689     c-1.826,3.484-1.756,7.725-1.694,11.466c0.097,6.111,0.051,11.899,0.004,17.499c-0.045,5.632-0.094,11.457,0.008,17.597     c0.085,5.347,3.288,13.772,7.746,17.31c1.055,0.837,10.532,7.91,19.776-0.074c-1.641-2.013-2.78-4.403-3.349-7.127     c-0.095-0.454,0.195-0.896,0.648-0.991c0.463-0.102,0.896,0.194,0.991,0.648c1.01,4.834,3.835,8.393,8.397,10.583     c6.662,3.194,15.272,2.461,18.678,0.733c7.384-3.755,11.881-10.121,12.027-17.032c0.249-11.831,1.944-23.222,5.032-33.859     C81.466,31.294,81.723,22.951,77.376,17.914z" fill="#ACD263"/></g><g><path d="M28.38,89.317c-4.663,0-8.981-1.917-12.107-4.399c-5.213-4.139-8.821-13.521-8.918-19.688     C7.251,59.059,7.3,53.218,7.347,47.572c0.044-5.584,0.091-11.358-0.006-17.436c-0.064-3.909-0.144-8.774,2.048-12.956     c2.539-4.83,8.521-7.715,15.261-7.343c7.269,0.399,12.362,3.952,17.289,7.388c4.761,3.323,9.26,6.461,15.821,7.152     c1.242,0.132,2.142,1.244,2.011,2.486c-0.13,1.242-1.243,2.13-2.485,2.011c-7.718-0.813-12.912-4.437-17.933-7.941     c-4.61-3.216-8.965-6.253-14.95-6.582c-4.892-0.274-9.319,1.713-11.009,4.929c-1.657,3.16-1.59,7.209-1.532,10.782     c0.099,6.134,0.05,11.936,0.006,17.547c-0.047,5.618-0.094,11.43,0.008,17.549c0.08,5.019,3.179,13.02,7.209,16.219     c1.567,1.243,9.808,7.094,18.035-0.1c0.942-0.823,2.369-0.727,3.19,0.214c0.822,0.94,0.727,2.367-0.214,3.191     C36.274,88.021,32.211,89.317,28.38,89.317z" fill="#434B56"/><path d="M55.124,90.859c-3.756,0-7.955-0.691-11.803-2.539c-5.4-2.591-8.889-6.996-10.09-12.741     c-0.257-1.221,0.528-2.42,1.75-2.675c1.223-0.261,2.42,0.527,2.675,1.75c0.915,4.376,3.479,7.604,7.619,9.59     c6.471,3.105,14.654,2.153,17.418,0.75c6.909-3.515,11.114-9.419,11.248-15.795c0.255-11.953,1.969-23.469,5.091-34.225     c1.103-3.791,1.365-11.52-2.618-16.131c-2.776-3.214-7.254-4.423-13.305-3.592c-5.32,0.73-12.057,3.946-13.602,7.567     c-0.491,1.148-1.818,1.682-2.968,1.191c-1.148-0.491-1.682-1.82-1.191-2.967c2.617-6.127,11.905-9.553,17.145-10.271     c9.554-1.31,14.7,2.058,17.343,5.116c5.188,6.008,4.958,15.459,3.537,20.348c-3.014,10.377-4.667,21.501-4.912,33.06     c-0.169,8.071-5.299,15.447-13.719,19.729C62.713,90.056,59.175,90.859,55.124,90.859z" fill="#434B56"/><path d="M39.959,20.908c-0.115,0-0.232-0.008-0.349-0.027c-1.234-0.191-2.079-1.345-1.888-2.58     c0.379-2.441,0.755-5.14,1.133-7.842c0.385-2.765,0.783-5.621,1.18-8.165c0.164-1.04,1.02-1.83,2.069-1.906     c8.405-0.625,10.688,2.99,11.297,5.194c0.465,1.668,0.056,3.078-0.339,4.443c-0.464,1.594-0.942,3.245-0.39,6.103     c0.237,1.227-0.564,2.412-1.791,2.65c-1.223,0.233-2.412-0.565-2.647-1.792c-0.762-3.928-0.041-6.411,0.484-8.221     c0.294-1.01,0.442-1.557,0.325-1.972C48.666,5.423,46.53,4.9,44.22,4.849c-0.298,2-0.591,4.118-0.887,6.234     c-0.381,2.728-0.761,5.449-1.143,7.912C42.017,20.11,41.055,20.908,39.959,20.908z" fill="#434B56"/><path d="M23.775,67.757c-1.191,0-2.19-0.933-2.256-2.136c-0.652-11.825-0.896-24.565,1.725-37.609     c0.245-1.223,1.435-2.021,2.661-1.771c1.225,0.247,2.017,1.438,1.771,2.661c-2.521,12.547-2.279,24.943-1.643,36.47     c0.07,1.246-0.886,2.313-2.132,2.381C23.859,67.755,23.816,67.757,23.775,67.757z" fill="#FFFFFF"/></g></g></g></svg>