<?xml version="1.0" ?><!DOCTYPE svg  PUBLIC '-//W3C//DTD SVG 1.1//EN'  'http://www.w3.org/Graphics/SVG/1.1/DTD/svg11.dtd'><svg enable-background="new 0 0 91 91" height="91px" id="Layer_1" version="1.1" viewBox="0 0 91 91" width="91px" xml:space="preserve" xmlns="http://www.w3.org/2000/svg" xmlns:xlink="http://www.w3.org/1999/xlink"><g><g><g><g><path d="M7.071,72.033c14.204,0.362,23.658-8.991,23.598-23.101c-0.025-0.565-0.025-1.548-0.118-2.515      c-1.257-13.288-7.519-17.419-19.892-13.146c-3.615,1.244-7.103-0.149-7.894-3.461c-0.908-3.819,0.851-6.373,4.631-7.186      c3.473-0.75,4.697-1.85,2.042-5.109C6.03,13.338,4.908,8.335,8.305,6.115c3.549-2.324,7.287,0.734,10.198,5.451      c1.653,2.681,3.002,3.023,5.084,0.385c2.776-3.525,5.875-4.808,8.825-2.353c3.128,2.603,2.88,5.816-0.82,9.458      c-3.103,3.051-5.408,7.468-1.41,10.106c0,0,10.094,6.154,6.82,24.876c0,0,15.812-5.644,18.426-16.643      c0,0,1.487-8.617-3.317-13.556c-4.494-4.622-3.756-11.12,0.158-15.035c4.082-4.083,10.017-4.432,14.997-0.407      c1.795,1.451,2.926,1.464,4.563,0.225c0.63-0.476,1.444-0.74,2.209-1.007c4.303-1.505,8.798-2.476,12.335,1.208      c3.498,3.653,0.477,8.647-1.524,12.66c-1.55,3.105-1.772,5.135,0.532,8.054c3.048,3.874,4.492,9.175,1.229,12.695      c-3.513,3.783-9.054,5.064-13.277,2.038c-3.921-2.809-6.771-1.509-10.108,0.544c-5.488,3.377-9.588,8.248-14.126,12.659      c-8.282,8.047-16.576,16.072-26.598,22.025c-3.086,1.839-6.328,3.318-9.754,4.376" fill="#C5DC76"/><path d="M12.745,86.123c-0.961,0-1.85-0.62-2.148-1.586c-0.366-1.188,0.298-2.447,1.486-2.813      c3.151-0.973,6.268-2.371,9.268-4.159c9.885-5.871,18.169-13.922,26.183-21.706c1.062-1.034,2.102-2.092,3.14-3.15      c3.416-3.487,6.951-7.091,11.374-9.811c3.603-2.216,7.542-4.08,12.597-0.457c3.434,2.46,7.79,0.988,10.319-1.74      c2.37-2.555,1.031-6.75-1.348-9.774c-3.056-3.872-2.563-6.868-0.777-10.45l0.516-1.019c2.116-4.155,3.356-7.033,1.396-9.081      c-2.47-2.572-5.646-2.152-9.966-0.641l-0.173,0.06c-0.552,0.192-1.123,0.391-1.43,0.622c-2.494,1.89-4.757,1.805-7.328-0.273      c-3.947-3.19-8.653-3.093-11.992,0.248c-2.872,2.873-3.896,8.012-0.138,11.878c5.542,5.693,3.992,15.108,3.924,15.506      c-0.008,0.046-0.018,0.093-0.029,0.137C54.754,49.964,38.452,55.91,37.761,56.157c-0.753,0.27-1.594,0.117-2.206-0.398      c-0.612-0.515-0.904-1.319-0.767-2.107c2.975-17.017-5.687-22.516-5.774-22.57c-2.398-1.579-3.045-3.531-3.179-4.897      c-0.356-3.67,2.468-7.046,4.182-8.732c1.534-1.511,2.356-2.919,2.313-3.967c-0.012-0.264-0.044-1.069-1.356-2.16      c-1.003-0.835-1.705-0.763-1.935-0.736c-1.067,0.112-2.375,1.09-3.684,2.752c-0.947,1.203-2.448,2.772-4.519,2.664      c-2.057-0.12-3.351-1.805-4.246-3.26c-1.796-2.908-3.717-4.774-5.272-5.12c-0.625-0.141-1.176-0.025-1.78,0.37      C8.964,8.372,8.648,8.868,8.54,9.561c-0.266,1.708,0.748,4.211,2.642,6.532c1.098,1.35,2.471,3.384,1.737,5.479      c-0.725,2.061-2.958,2.799-5.048,3.25c-0.91,0.196-2.113,0.62-2.69,1.536c-0.446,0.705-0.521,1.691-0.227,2.931      c0.188,0.794,0.63,1.385,1.31,1.759c0.964,0.531,2.299,0.568,3.663,0.097c6.882-2.376,12.11-2.325,15.976,0.165      c3.926,2.527,6.179,7.399,6.888,14.895c0.073,0.764,0.093,1.529,0.109,2.088c0.006,0.205,0.011,0.387,0.017,0.539      c0.035,7.661-2.437,14.098-7.144,18.707c-4.705,4.604-11.188,6.922-18.76,6.744c-1.241-0.032-2.221-1.065-2.19-2.308      c0.031-1.24,1.046-2.188,2.307-2.19c6.32,0.166,11.682-1.728,15.496-5.461c3.818-3.737,5.822-9.057,5.795-15.381      c-0.006-0.079-0.012-0.29-0.018-0.529c-0.014-0.505-0.031-1.146-0.091-1.782c-0.563-5.95-2.193-9.832-4.845-11.539      c-2.628-1.693-6.58-1.594-12.075,0.304c-2.565,0.883-5.222,0.734-7.296-0.405c-1.789-0.984-3.038-2.638-3.518-4.661      c-0.578-2.427-0.302-4.631,0.798-6.375c1.118-1.771,3.035-2.991,5.547-3.531c0.765-0.167,1.238-0.316,1.522-0.428      c-0.134-0.237-0.362-0.583-0.751-1.062c-2.756-3.378-4.069-7.047-3.601-10.064c0.304-1.96,1.334-3.564,2.98-4.639      c1.61-1.054,3.415-1.399,5.22-0.998c2.853,0.636,5.586,3.039,8.122,7.149c0.304,0.492,0.532,0.789,0.689,0.963      c0.161-0.146,0.399-0.387,0.715-0.789c2.125-2.698,4.395-4.193,6.746-4.441c1.848-0.196,3.673,0.411,5.284,1.751      c1.887,1.571,2.886,3.397,2.971,5.431c0.101,2.4-1.129,4.877-3.651,7.359c-1.859,1.828-2.983,3.827-2.858,5.09      c0.035,0.368,0.189,0.928,1.109,1.534c0.368,0.225,9.803,6.198,8.331,23.092c4.48-2.226,11.845-6.8,13.47-13.418      c0.104-0.707,1.023-7.698-2.724-11.548c-5.063-5.208-4.985-13.03,0.181-18.194c4.997-5.001,12.231-5.228,18-0.565      c0.981,0.794,0.981,0.792,1.792,0.18c0.871-0.655,1.861-1.001,2.657-1.278l0.167-0.058c3.161-1.106,9.729-3.406,14.701,1.774      c4.318,4.509,1.454,10.13-0.635,14.234l-0.5,0.986c-1.331,2.669-1.281,3.673,0.284,5.656c3.564,4.531,5.29,11.114,1.114,15.62      c-4.514,4.863-11.341,5.845-16.238,2.335c-2.606-1.865-4.188-1.479-7.619,0.633c-3.954,2.431-7.145,5.684-10.52,9.127      c-1.063,1.085-2.129,2.17-3.218,3.228C42.468,67.051,33.99,75.289,23.65,81.432c-3.302,1.968-6.748,3.514-10.241,4.591      C13.188,86.092,12.966,86.123,12.745,86.123z" fill="#434B56"/></g><path d="M61.303,38.159c-0.414,0-0.833-0.114-1.207-0.353c-1.048-0.668-1.355-2.057-0.689-3.105     c3.671-5.767,3.762-11.465,0.283-17.931c-0.589-1.095-0.178-2.458,0.916-3.047c1.093-0.591,2.456-0.178,3.045,0.916     c4.271,7.939,4.124,15.292-0.449,22.477C62.773,37.791,62.045,38.159,61.303,38.159z" fill="#434B56"/><path d="M63.364,34.052c-0.313,0-0.632-0.065-0.934-0.203c-1.13-0.517-1.628-1.852-1.11-2.981     c2.529-5.53,10.559-15.251,16.896-17.303c1.182-0.375,2.45,0.266,2.832,1.447c0.383,1.182-0.266,2.45-1.447,2.834     c-4.778,1.545-12.005,10.119-14.19,14.893C65.033,33.564,64.216,34.052,63.364,34.052z" fill="#434B56"/><path d="M81.583,38.159c-0.671,0-1.335-0.3-1.778-0.872c-2.216-2.859-9.007-6.814-15.4-3.489     c-1.104,0.573-2.46,0.144-3.033-0.957c-0.574-1.103-0.146-2.46,0.957-3.034c8.447-4.395,17.544,0.219,21.03,4.722     c0.762,0.982,0.584,2.395-0.398,3.156C82.55,38.004,82.065,38.159,81.583,38.159z" fill="#434B56"/><g><path d="M46.291,68.366c9.089-0.816,12.65,2.875,11.323,11.727c-0.385,2.588,0.986,4.76,3.312,4.874      c2.688,0.133,4.18-1.368,4.255-4.012c0.067-2.429,0.653-3.388,3.179-2.009c3.232,1.765,7.029,1.329,7.806-0.664      c0.77-1.98-1.404-4.809-4.942-6.174c-2.01-0.78-2.434-1.667-0.892-3.37c2.407-2.665,2.498-4.552,0.482-6.226      c-2.144-1.78-4.276-1.214-6.259,1.729" fill="#ACD263"/><path d="M61.247,87.225c-0.142,0-0.285-0.004-0.433-0.012c-1.621-0.079-3.071-0.804-4.083-2.038      c-1.154-1.406-1.645-3.379-1.342-5.411c0.548-3.653,0.173-6.198-1.118-7.565c-1.321-1.402-3.939-1.938-7.778-1.593      c-1.24,0.103-2.331-0.8-2.441-2.038c-0.112-1.237,0.8-2.329,2.038-2.441c5.361-0.481,9.107,0.495,11.455,2.986      c2.317,2.458,3.066,6.159,2.294,11.313c-0.115,0.766,0.025,1.477,0.37,1.896c0.206,0.254,0.47,0.379,0.826,0.396      c0.465,0.026,1.089-0.016,1.43-0.328c0.281-0.262,0.447-0.795,0.469-1.502c0.026-1,0.092-3.351,1.908-4.393      c1.813-1.042,3.835,0.062,4.597,0.477c2.281,1.247,4.352,0.823,4.654,0.451c0.089-0.386-0.99-2.178-3.68-3.216      c-0.747-0.29-2.718-1.058-3.175-2.988c-0.454-1.917,0.962-3.479,1.428-3.992c1.305-1.446,1.329-2.086,1.322-2.199      c-0.014-0.187-0.236-0.472-0.611-0.784c-0.301-0.25-0.727-0.532-1.071-0.485c-0.187,0.025-0.868,0.229-1.886,1.739      c-0.693,1.03-2.09,1.301-3.12,0.609c-1.031-0.692-1.304-2.091-0.609-3.121c1.466-2.181,3.142-3.417,4.976-3.681      c1.091-0.157,2.77-0.029,4.583,1.478c1.371,1.138,2.121,2.456,2.226,3.922c0.123,1.717-0.611,3.423-2.311,5.356      c2.761,1.099,4.968,3.014,5.909,5.143c0.591,1.34,0.658,2.685,0.189,3.891c-0.49,1.254-1.552,2.232-2.994,2.757      c-2.28,0.831-5.268,0.503-7.839-0.85c0,0.004,0,0.01,0,0.016c-0.072,2.47-1.079,3.904-1.912,4.675      C64.747,86.405,63.396,87.225,61.247,87.225z" fill="#434B56"/></g></g></g></g></svg>